# xmcd CD database file
#
# Track frame offsets:
#	150
#	12461
#	37761
#	52889
#	77247
#	97976
#	116936
#	139414
#	163177
#	182549
#	216003
#
# Disc length: 3001 seconds
#
# Revision: 0
# Processed by: cddbd v1.5.2PL0 Copyright (c) Steve Scherf et al.
# Submitted via: CDex 1.70beta2
#
DISCID=900bb70b
DTITLE=Lee No Kyung - Road To You
DYEAR=1900
DGENRE=Jazz
TTITLE0=Love At First Sight
TTITLE1=Lost Of Love
TTITLE2=Lost Of Love 2 - Memories
TTITLE3=You Are There
TTITLE4=Fullmoon
TTITLE5=Raindrops
TTITLE6=Walk Alone
TTITLE7=Country
TTITLE8=Let Go
TTITLE9=Time Traveler
TTITLE10=We'll Meet Again
EXTD=
EXTT0=
EXTT1=
EXTT2=
EXTT3=
EXTT4=
EXTT5=
EXTT6=
EXTT7=
EXTT8=
EXTT9=
EXTT10=
PLAYORDER=
